<?xml version="1.0" encoding="UTF-8"?>
<svg id="_レイヤー_1" data-name="レイヤー_1" xmlns="http://www.w3.org/2000/svg" version="1.1" viewBox="0 0 24 24">
  <!-- Generator: Adobe Illustrator 30.8.1, SVG Export Plug-In . SVG Version: 2.1.4 Build 1)  -->
  <defs>
    <style>
      .st0 {
        fill: none;
        stroke: #000;
        stroke-linecap: round;
        stroke-linejoin: round;
        stroke-width: 1.5px;
      }
    </style>
  </defs>
  <g>
    <path d="M19,8v11c0,1.1-.9,2-2,2h-5.55s-.05-8-.05-8l3.04-5.17c.16.11.35.17.56.17h4Z"/>
    <path d="M5,13V5c0-1.1.9-2,2-2h7v4c0,.34.18.65.44.83l-3.04,5.17h-6.4Z"/>
  </g>
  <g>
    <path class="st0" d="M14,3v4c0,.34.18.65.44.83.16.11.35.17.56.17h4"/>
    <path class="st0" d="M11.4,13h-6.4V5c0-1.1.9-2,2-2h7l5,5v11c0,1.1-.9,2-2,2h-5.55s-.05-8-.05-8Z"/>
    <line class="st0" x1="2" y1="19" x2="9" y2="19"/>
    <polyline class="st0" points="6 16 9 19 6 22"/>
  </g>
</svg>